# xmcd
#
# Track frame offsets:
#	150
#	14244
#	24126
#	38755
#	51450
#	63193
#	70776
#	82901
#	90370
#	109127
#	119178
#	129576
#	144548
#	157646
#	169998
#	182816
#	190916
#	202714
#	214723
#	225774
#
# Disc length: 3117 seconds
# Revision: 2
# Processed by: cddbd v1.5.2PL0 Copyright (c) Steve Scherf et al.
# Submitted via: dBpowerAMP V12.0
#
DISCID=060c2b14
DTITLE=Various Artist - Country Bluegrass Christmas, 20 Classics
DYEAR=2002
DGENRE=Christmas
TTITLE0=Mac Wiseman - Up On The Housetop
TTITLE1=Jeannie Seely - Joy To The World
TTITLE2=Mac Wiseman - It Came Upon A Midnight Clear
TTITLE3=Nashville Fiddles - Silent Night
TTITLE4=Jeannie Seely - O Holy Night
TTITLE5=Jim Glaser - Angels We Have Heard On High
TTITLE6=Wilma Lee Cooper - O Come All Ye Faithful
TTITLE7=Mac Wiseman - We Wish You A Merry Christmas
TTITLE8=Nashville Pianos - Ave Maria
TTITLE9=Jeannie Seely - God Rest Ye Merry Gentlemen
TTITLE10=Jimmy Martin and His Band (instumental) - Jingle Bells
TTITLE11=Skeeter Davis - Silent Night
TTITLE12=Wilma Lee cooper - Away In A Manager
TTITLE13=Jeannie Seely - What Child Is This
TTITLE14=Nashville Harmonica - O Little Town Of Bethlehem
TTITLE15=Mac Wiseman - Go Tell It On The Mountain
TTITLE16=Jeannie Seely - Hark The Harald Angels Sing
TTITLE17=Jim Glaser - We Three Kings Of Orient Are
TTITLE18=Mac Wiseman - The First Noel
TTITLE19=Country Gentlemen - Auld Lang Syne
EXTD=
EXTT0=
EXTT1=
EXTT2=
EXTT3=
EXTT4=
EXTT5=
EXTT6=
EXTT7=
EXTT8=
EXTT9=
EXTT10=
EXTT11=
EXTT12=
EXTT13=
EXTT14=
EXTT15=
EXTT16=
EXTT17=
EXTT18=
EXTT19=
PLAYORDER=
